<mxfile host="app.diagrams.net" modified="2023-05-04T15:07:13.402Z" agent="Mozilla/5.0 (Windows NT 10.0; Win64; x64; rv:109.0) Gecko/20100101 Firefox/112.0" version="21.2.8" etag="HNFS-lJ-kQKIIozoLCyi" type="github">
  <diagram name="Page-1" id="0DUxEzuCZ63vh2vNhXAg">
    <mxGraphModel>
      <root>
        <mxCell id="0" />
        <mxCell id="1" parent="0" />
      </root>
    </mxGraphModel>
  </diagram>
</mxfile>
